<svg width="617" height="541" viewBox="0 0 617 541" fill="none" xmlns="http://www.w3.org/2000/svg">
<path d="M1 1H616V540H1V1Z" fill="#07C378"/>
<rect opacity="0.2" width="275.532" height="258.016" transform="matrix(4.0932e-08 1 1 -4.66795e-08 358 264.481)" fill="white" fill-opacity="0.3"/>
<path opacity="0.2" d="M359.204 264.481L496.016 406.585L616.01 538.725L616.01 264.481L359.204 264.481Z" fill="white" fill-opacity="0.3"/>
<g opacity="0.4">
<path opacity="0.14" d="M0.695038 117.227C0.695038 132.561 3.71514 147.744 9.58292 161.91C15.4507 176.076 24.0512 188.947 34.8934 199.79C45.7357 210.632 58.6073 219.232 72.7733 225.1C86.9394 230.968 102.122 233.988 117.456 233.988C132.789 233.988 147.972 230.968 162.138 225.1C176.304 219.232 189.176 210.632 200.018 199.79C210.86 188.947 219.461 176.076 225.328 161.91C231.196 147.744 234.216 132.561 234.216 117.227L117.456 117.227L0.695038 117.227Z" fill="white"/>
<path opacity="0.28" d="M234.218 0.969788C234.218 16.303 231.198 31.4861 225.33 45.6522C219.462 59.8182 210.862 72.6898 200.019 83.5321C189.177 94.3743 176.306 102.975 162.14 108.843C147.974 114.71 132.79 117.73 117.457 117.73C102.124 117.73 86.9409 114.71 72.7748 108.843C58.6088 102.975 45.7372 94.3743 34.895 83.532C24.0527 72.6898 15.4522 59.8182 9.58445 45.6521C3.71668 31.4861 0.696568 16.303 0.696569 0.969747L117.457 0.969782L234.218 0.969788Z" fill="white"/>
</g>
</svg>
